<svg width="200" height="26" viewBox="0 0 200 26" fill="none" xmlns="http://www.w3.org/2000/svg">
<path d="M188.06 25.3846C187.771 25.3846 187.482 25.2821 187.254 25.0625C186.813 24.6379 186.813 23.9351 187.254 23.5105L197.171 13.9643C197.901 13.2615 197.901 12.1195 197.171 11.4167L187.254 1.87045C186.813 1.44584 186.813 0.743054 187.254 0.318452C187.695 -0.106151 188.425 -0.106151 188.866 0.318452L198.783 9.86468C199.559 10.6114 200 11.6217 200 12.6905C200 13.7593 199.574 14.7696 198.783 15.5163L188.866 25.0625C188.638 25.2675 188.349 25.3846 188.06 25.3846Z" fill="#444F54"/>
<line x1="1.31134e-07" y1="12.3462" x2="160.769" y2="12.3462" stroke="#444F54" stroke-width="3"/>
<line x1="176.923" y1="12.3462" x2="199.231" y2="12.3462" stroke="#444F54" stroke-width="3"/>
</svg>
